{
  "accessors": [
    {
      "bufferView": 2,
      "componentType": 5126,
      "count": 24,
      "max": [
        50.0,
        50.0,
        50.0
      ],
      "min": [
        -50.0,
        -50.0,
        -46.86281204223633
      ],
      "type": "VEC3"
    },
    {
      "bufferView": 2,
      "byteOffset": 288,
      "componentType": 5126,
      "count": 24,
      "max": [
        1.0,
        1.0,
        1.0
      ],
      "min": [
        -1.0,
        -1.0,
        -1.0
      ],
      "type": "VEC3"
    },
    {
      "bufferView": 1,
      "componentType": 5126,
      "count": 24,
      "max": [
        0.875,
        1.0
      ],
      "min": [
        0.125,
        0.0
      ],
      "type": "VEC2"
    },
    {
      "bufferView": 0,
      "componentType": 5125,
      "count": 36,
      "type": "SCALAR"
    },
    {
      "bufferView": 2,
      "byteOffset": 576,
      "componentType": 5126,
      "count": 80,
      "max": [
        99.9701156616211,
        100.0009765625,
        99.97006225585938
      ],
      "min": [
        -99.9699935913086,
        100.0009765625,
        -99.96991729736328
      ],
      "type": "VEC3"
    },
    {
      "bufferView": 2,
      "byteOffset": 1536,
      "componentType": 5126,
      "count": 80,
      "max": [
        0.0,
        1.0,
        -2.437334671867575e-07
      ],
      "min": [
        0.0,
        1.0,
        -2.4373352403017634e-07
      ],
      "type": "VEC3"
    },
    {
      "bufferView": 1,
      "byteOffset": 192,
      "componentType": 5126,
      "count": 80,
      "max": [
        1.0,
        1.0000001192092896
      ],
      "min": [
        0.0,
        5.960464477539063e-08
      ],
      "type": "VEC2"
    },
    {
      "bufferView": 0,
      "byteOffset": 144,
      "componentType": 5125,
      "count": 234,
      "type": "SCALAR"
    },
    {
      "bufferView": 2,
      "byteOffset": 2496,
      "componentType": 5126,
      "count": 1583,
      "max": [
        32.03508758544922,
        20.92481231689453,
        187.7212371826172
      ],
      "min": [
        -32.03508758544922,
        -20.924808502197266,
        -0.22870366275310516
      ],
      "type": "VEC3"
    },
    {
      "bufferView": 2,
      "byteOffset": 21492,
      "componentType": 5126,
      "count": 1583,
      "max": [
        0.9998313188552856,
        0.9999980926513672,
        0.9993336796760559
      ],
      "min": [
        -0.9998639225959778,
        -0.9990121126174927,
        -0.9996041655540466
      ],
      "type": "VEC3"
    },
    {
      "bufferView": 1,
      "byteOffset": 832,
      "componentType": 5126,
      "count": 1583,
      "max": [
        0.9957705140113831,
        0.9918619990348816
      ],
      "min": [
        0.00634233932942152,
        0.008434908464550972
      ],
      "type": "VEC2"
    },
    {
      "bufferView": 1,
      "byteOffset": 13496,
      "componentType": 5126,
      "count": 1583,
      "max": [
        0.9957705140113831,
        0.9918619990348816
      ],
      "min": [
        0.00634233932942152,
        0.008434908464550972
      ],
      "type": "VEC2"
    },
    {
      "bufferView": 0,
      "byteOffset": 1080,
      "componentType": 5125,
      "count": 7176,
      "type": "SCALAR"
    },
    {
      "bufferView": 2,
      "byteOffset": 40488,
      "componentType": 5126,
      "count": 450,
      "max": [
        1973.9130859375,
        2152.9130859375,
        530.992919921875
      ],
      "min": [
        -1973.992431640625,
        -148.69583129882813,
        -1726.6031494140625
      ],
      "type": "VEC3"
    },
    {
      "bufferView": 2,
      "byteOffset": 45888,
      "componentType": 5126,
      "count": 450,
      "max": [
        1.0,
        1.0,
        1.0
      ],
      "min": [
        -1.0,
        -1.0,
        -1.0
      ],
      "type": "VEC3"
    },
    {
      "bufferView": 1,
      "byteOffset": 26160,
      "componentType": 5126,
      "count": 450,
      "max": [
        100.00001525878906,
        100.0
      ],
      "min": [
        -1.1920928955078125e-05,
        0.0
      ],
      "type": "VEC2"
    },
    {
      "bufferView": 1,
      "byteOffset": 29760,
      "componentType": 5126,
      "count": 450,
      "max": [
        1.0,
        1.0000001192092896
      ],
      "min": [
        0.0,
        0.0
      ],
      "type": "VEC2"
    },
    {
      "bufferView": 0,
      "byteOffset": 29784,
      "componentType": 5125,
      "count": 1032,
      "type": "SCALAR"
    },
    {
      "bufferView": 2,
      "byteOffset": 51288,
      "componentType": 5126,
      "count": 10605,
      "max": [
        643.078369140625,
        1275.6370849609375,
        -916.0819702148438
      ],
      "min": [
        -644.1959228515625,
        -27.951181411743164,
        -954.4119262695313
      ],
      "type": "VEC3"
    },
    {
      "bufferView": 2,
      "byteOffset": 178548,
      "componentType": 5126,
      "count": 10605,
      "max": [
        0.9999859929084778,
        0.9999976754188538,
        1.0
      ],
      "min": [
        -0.9999998211860657,
        -0.9999973773956299,
        -1.0
      ],
      "type": "VEC3"
    },
    {
      "bufferView": 1,
      "byteOffset": 33360,
      "componentType": 5126,
      "count": 10605,
      "max": [
        0.6486026644706726,
        1.0
      ],
      "min": [
        0.3437499701976776,
        -7.450580596923828e-08
      ],
      "type": "VEC2"
    },
    {
      "bufferView": 0,
      "byteOffset": 33912,
      "componentType": 5125,
      "count": 27534,
      "type": "SCALAR"
    },
    {
      "bufferView": 2,
      "byteOffset": 305808,
      "componentType": 5126,
      "count": 720,
      "max": [
        1184.018798828125,
        532.5361328125,
        -149.2614288330078
      ],
      "min": [
        -1185.79541015625,
        -13.518333435058594,
        -1193.7122802734375
      ],
      "type": "VEC3"
    },
    {
      "bufferView": 2,
      "byteOffset": 314448,
      "componentType": 5126,
      "count": 720,
      "max": [
        1.0,
        1.0,
        1.0
      ],
      "min": [
        -1.0,
        -1.0,
        -1.0
      ],
      "type": "VEC3"
    },
    {
      "bufferView": 1,
      "byteOffset": 118200,
      "componentType": 5126,
      "count": 720,
      "max": [
        1.0,
        1.0
      ],
      "min": [
        -5.960464477539063e-08,
        5.960464477539063e-08
      ],
      "type": "VEC2"
    },
    {
      "bufferView": 0,
      "byteOffset": 144048,
      "componentType": 5125,
      "count": 1080,
      "type": "SCALAR"
    },
    {
      "bufferView": 2,
      "byteOffset": 323088,
      "componentType": 5126,
      "count": 8,
      "max": [
        4630.31005859375,
        2171.7021484375,
        -627.6284790039063
      ],
      "min": [
        -4630.39013671875,
        -148.40487670898438,
        -1699.789306640625
      ],
      "type": "VEC3"
    },
    {
      "bufferView": 2,
      "byteOffset": 323184,
      "componentType": 5126,
      "count": 8,
      "max": [
        0.0,
        0.0,
        1.0
      ],
      "min": [
        0.0,
        0.0,
        1.0
      ],
      "type": "VEC3"
    },
    {
      "bufferView": 1,
      "byteOffset": 123960,
      "componentType": 5126,
      "count": 8,
      "max": [
        1.0,
        1.0
      ],
      "min": [
        0.0,
        0.0
      ],
      "type": "VEC2"
    },
    {
      "bufferView": 0,
      "byteOffset": 148368,
      "componentType": 5125,
      "count": 12,
      "type": "SCALAR"
    },
    {
      "bufferView": 2,
      "byteOffset": 323280,
      "componentType": 5126,
      "count": 4,
      "max": [
        3227.57080078125,
        3668.11572265625,
        -1028.3349609375
      ],
      "min": [
        -3227.57080078125,
        31.7078857421875,
        -1028.3349609375
      ],
      "type": "VEC3"
    },
    {
      "bufferView": 2,
      "byteOffset": 323328,
      "componentType": 5126,
      "count": 4,
      "max": [
        0.0,
        0.0,
        1.0
      ],
      "min": [
        0.0,
        0.0,
        1.0
      ],
      "type": "VEC3"
    },
    {
      "bufferView": 1,
      "byteOffset": 124024,
      "componentType": 5126,
      "count": 4,
      "max": [
        1.0,
        1.0
      ],
      "min": [
        0.0,
        0.0
      ],
      "type": "VEC2"
    },
    {
      "bufferView": 0,
      "byteOffset": 148416,
      "componentType": 5125,
      "count": 6,
      "type": "SCALAR"
    },
    {
      "bufferView": 3,
      "componentType": 5126,
      "count": 1,
      "max": [
        0.0416666679084301
      ],
      "min": [
        0.0416666679084301
      ],
      "type": "SCALAR"
    },
    {
      "bufferView": 4,
      "componentType": 5126,
      "count": 1,
      "max": [
        1.3360344731580542e-12,
        165.82896423339844,
        1521.80029296875
      ],
      "min": [
        1.3360344731580542e-12,
        165.82896423339844,
        1521.80029296875
      ],
      "type": "VEC3"
    },
    {
      "bufferView": 3,
      "byteOffset": 4,
      "componentType": 5126,
      "count": 1,
      "max": [
        0.0416666679084301
      ],
      "min": [
        0.0416666679084301
      ],
      "type": "SCALAR"
    },
    {
      "bufferView": 4,
      "byteOffset": 12,
      "componentType": 5126,
      "count": 1,
      "max": [
        1.0,
        1.0,
        1.0
      ],
      "min": [
        1.0,
        1.0,
        1.0
      ],
      "type": "VEC3"
    }
  ],
  "animations": [
    {
      "channels": [
        {
          "sampler": 0,
          "target": {
            "node": 8,
            "path": "translation"
          }
        },
        {
          "sampler": 1,
          "target": {
            "node": 8,
            "path": "scale"
          }
        }
      ],
      "name": "Take 001",
      "samplers": [
        {
          "input": 34,
          "interpolation": "LINEAR",
          "output": 35
        },
        {
          "input": 36,
          "interpolation": "LINEAR",
          "output": 37
        }
      ]
    }
  ],
  "asset": {
    "extras": {
      "author": "Daniil Kutuzov (https://sketchfab.com/VFXxx)",
      "license": "CC-BY-4.0 (http://creativecommons.org/licenses/by/4.0/)",
      "source": "https://sketchfab.com/3d-models/mt-554324342d9f498e92e8494114e97034",
      "title": "MT"
    },
    "generator": "Sketchfab-12.65.0",
    "version": "2.0"
  },
  "bufferViews": [
    {
      "buffer": 0,
      "byteLength": 148440,
      "name": "floatBufferViews",
      "target": 34963
    },
    {
      "buffer": 0,
      "byteLength": 124056,
      "byteOffset": 148440,
      "byteStride": 8,
      "name": "floatBufferViews",
      "target": 34962
    },
    {
      "buffer": 0,
      "byteLength": 323376,
      "byteOffset": 272496,
      "byteStride": 12,
      "name": "floatBufferViews",
      "target": 34962
    },
    {
      "buffer": 0,
      "byteLength": 8,
      "byteOffset": 595872,
      "name": "floatBufferViews"
    },
    {
      "buffer": 0,
      "byteLength": 24,
      "byteOffset": 595880,
      "byteStride": 12,
      "name": "floatBufferViews"
    }
  ],
  "buffers": [
    {
      "byteLength": 595904,
      "uri": "scene.bin"
    }
  ],
  "images": [
    {
      "uri": "textures/screen1_emissive.jpeg"
    },
    {
      "uri": "textures/smoke_baseColor.png"
    },
    {
      "uri": "textures/lights_emissive.jpeg"
    }
  ],
  "materials": [
    {
      "doubleSided": true,
      "name": "podium",
      "pbrMetallicRoughness": {
        "baseColorFactor": [
          0.009048465891187152,
          0.009048465891187152,
          0.009048465891187152,
          1.0
        ],
        "metallicFactor": 0.0,
        "roughnessFactor": 0.031969706217447914
      }
    },
    {
      "doubleSided": true,
      "emissiveFactor": [
        1.0,
        1.0,
        1.0
      ],
      "emissiveTexture": {
        "index": 0
      },
      "name": "screen1",
      "pbrMetallicRoughness": {
        "baseColorFactor": [
          0.0,
          0.0,
          0.0,
          1.0
        ],
        "metallicFactor": 0.0,
        "roughnessFactor": 0.6
      }
    },
    {
      "doubleSided": true,
      "name": "material",
      "pbrMetallicRoughness": {
        "baseColorFactor": [
          0.0,
          0.0,
          0.0,
          1.0
        ],
        "metallicFactor": 0.0,
        "roughnessFactor": 0.6
      }
    },
    {
      "alphaMode": "BLEND",
      "doubleSided": true,
      "name": "material_3",
      "pbrMetallicRoughness": {
        "baseColorFactor": [
          0.0,
          0.0,
          0.0,
          0.23469696044921876
        ],
        "metallicFactor": 0.0077272819750236746,
        "roughnessFactor": 0.11681819106593276
      }
    },
    {
      "doubleSided": true,
      "name": "truss",
      "pbrMetallicRoughness": {
        "baseColorFactor": [
          0.17962121674508763,
          0.17962121674508763,
          0.17962121674508763,
          1.0
        ],
        "roughnessFactor": 0.6
      }
    },
    {
      "emissiveFactor": [
        1.0,
        1.0,
        1.0
      ],
      "name": "poles",
      "pbrMetallicRoughness": {
        "baseColorFactor": [
          0.0,
          0.0,
          0.0,
          1.0
        ],
        "metallicFactor": 0.0,
        "roughnessFactor": 0.0
      }
    },
    {
      "alphaMode": "BLEND",
      "doubleSided": true,
      "emissiveFactor": [
        0.04955848448202201,
        0.18712059729811106,
        0.505618557553703
      ],
      "name": "smoke",
      "pbrMetallicRoughness": {
        "baseColorFactor": [
          0.0,
          0.0,
          0.0,
          1.0
        ],
        "baseColorTexture": {
          "index": 1
        },
        "metallicFactor": 0.0,
        "roughnessFactor": 0.6
      }
    },
    {
      "doubleSided": true,
      "emissiveFactor": [
        1.0,
        1.0,
        1.0
      ],
      "emissiveTexture": {
        "index": 2
      },
      "name": "lights",
      "pbrMetallicRoughness": {
        "baseColorFactor": [
          0.0,
          0.0,
          0.0,
          1.0
        ],
        "metallicFactor": 0.0,
        "roughnessFactor": 0.6
      }
    }
  ],
  "meshes": [
    {
      "name": "Podium_podium_0",
      "primitives": [
        {
          "attributes": {
            "NORMAL": 1,
            "POSITION": 0,
            "TEXCOORD_0": 2
          },
          "indices": 3,
          "material": 0,
          "mode": 4
        }
      ]
    },
    {
      "name": "Screen_screen1_0",
      "primitives": [
        {
          "attributes": {
            "NORMAL": 5,
            "POSITION": 4,
            "TEXCOORD_0": 6
          },
          "indices": 7,
          "material": 1,
          "mode": 4
        }
      ]
    },
    {
      "name": "Man_man_0",
      "primitives": [
        {
          "attributes": {
            "NORMAL": 9,
            "POSITION": 8,
            "TEXCOORD_0": 10,
            "TEXCOORD_1": 11
          },
          "indices": 12,
          "material": 2,
          "mode": 4
        }
      ]
    },
    {
      "name": "Env_env_0",
      "primitives": [
        {
          "attributes": {
            "NORMAL": 14,
            "POSITION": 13,
            "TEXCOORD_0": 15,
            "TEXCOORD_1": 16
          },
          "indices": 17,
          "material": 3,
          "mode": 4
        }
      ]
    },
    {
      "name": "Truss_truss_0",
      "primitives": [
        {
          "attributes": {
            "NORMAL": 19,
            "POSITION": 18,
            "TEXCOORD_0": 20
          },
          "indices": 21,
          "material": 4,
          "mode": 4
        }
      ]
    },
    {
      "name": "Poles_poles_0",
      "primitives": [
        {
          "attributes": {
            "NORMAL": 23,
            "POSITION": 22,
            "TEXCOORD_0": 24
          },
          "indices": 25,
          "material": 5,
          "mode": 4
        }
      ]
    },
    {
      "name": "Smoke_smoke_0",
      "primitives": [
        {
          "attributes": {
            "NORMAL": 27,
            "POSITION": 26,
            "TEXCOORD_0": 28
          },
          "indices": 29,
          "material": 6,
          "mode": 4
        }
      ]
    },
    {
      "name": "Lights_lights_0",
      "primitives": [
        {
          "attributes": {
            "NORMAL": 31,
            "POSITION": 30,
            "TEXCOORD_0": 32
          },
          "indices": 33,
          "material": 7,
          "mode": 4
        }
      ]
    }
  ],
  "nodes": [
    {
      "children": [
        1
      ],
      "matrix": [
        0.052563250064849854,
        0.0,
        0.0,
        0.0,
        0.0,
        1.1671386094225212e-17,
        -0.052563250064849854,
        0.0,
        0.0,
        0.052563250064849854,
        1.1671386094225212e-17,
        0.0,
        0.0,
        0.0,
        0.0,
        1.0
      ],
      "name": "Sketchfab_model"
    },
    {
      "children": [
        2
      ],
      "matrix": [
        1.0,
        0.0,
        0.0,
        0.0,
        0.0,
        0.0,
        1.0,
        0.0,
        0.0,
        -1.0,
        0.0,
        0.0,
        0.0,
        0.0,
        0.0,
        1.0
      ],
      "name": "8fcf4aca1b904f8e994898459dc17958.fbx"
    },
    {
      "children": [
        3
      ],
      "name": "Object_2"
    },
    {
      "children": [
        4,
        6,
        8,
        10
      ],
      "name": "RootNode"
    },
    {
      "children": [
        5
      ],
      "name": "back",
      "rotation": [
        -0.0,
        -0.7071068286895752,
        0.0,
        0.7071068286895752
      ],
      "translation": [
        364.03399658203125,
        349.0963439941406,
        -100011.28125
      ]
    },
    {
      "name": "Object_5"
    },
    {
      "children": [
        7
      ],
      "name": "bottom",
      "rotation": [
        0.5,
        0.5,
        0.5,
        0.5
      ],
      "translation": [
        0.0,
        -100010.0,
        0.0
      ]
    },
    {
      "name": "Object_7"
    },
    {
      "children": [
        9
      ],
      "name": "camera1",
      "rotation": [
        -0.0,
        0.7071068286895752,
        0.0,
        0.7071068286895752
      ],
      "scale": [
        92.23938751220703,
        104.37655639648438,
        95.01506805419922
      ],
      "translation": [
        0.0,
        165.82896423339844,
        1521.80029296875
      ]
    },
    {
      "name": "Object_9"
    },
    {
      "children": [
        11,
        13,
        15,
        17,
        19,
        21,
        23,
        25
      ],
      "name": "group1",
      "scale": [
        2.5,
        2.5,
        2.5
      ]
    },
    {
      "children": [
        12
      ],
      "name": "Podium",
      "scale": [
        24.235353469848633,
        0.21173833310604095,
        19.41932487487793
      ],
      "translation": [
        6.938893903907228e-18,
        1.1102230246251565e-16,
        -561.6084594726563
      ]
    },
    {
      "mesh": 0,
      "name": "Podium_podium_0"
    },
    {
      "children": [
        14
      ],
      "name": "Screen",
      "rotation": [
        0.7071068286895752,
        0.0,
        0.0,
        0.7071068286895752
      ],
      "scale": [
        5.968035697937012,
        0.14920088648796082,
        5.968035697937012
      ],
      "translation": [
        0.00203921040520072,
        630.85986328125,
        -900.8798217773438
      ]
    },
    {
      "mesh": 1,
      "name": "Screen_screen1_0"
    },
    {
      "children": [
        16
      ],
      "name": "Man",
      "rotation": [
        -0.7071068286895752,
        -0.0,
        0.0,
        0.7071068286895752
      ],
      "scale": [
        0.8168818354606628,
        0.8168818354606628,
        0.8168818354606628
      ],
      "translation": [
        0.4417918026447296,
        7.795999526977539,
        -270.75225830078125
      ]
    },
    {
      "mesh": 2,
      "name": "Man_man_0"
    },
    {
      "children": [
        18
      ],
      "name": "Env"
    },
    {
      "mesh": 3,
      "name": "Env_env_0"
    },
    {
      "children": [
        20
      ],
      "name": "Truss"
    },
    {
      "mesh": 4,
      "name": "Truss_truss_0"
    },
    {
      "children": [
        22
      ],
      "name": "Poles"
    },
    {
      "mesh": 5,
      "name": "Poles_poles_0"
    },
    {
      "children": [
        24
      ],
      "name": "Smoke",
      "scale": [
        0.4000000059604645,
        0.4000000059604645,
        0.4000000059604645
      ],
      "translation": [
        0.0,
        0.0,
        1.1368683772161603e-13
      ]
    },
    {
      "mesh": 6,
      "name": "Smoke_smoke_0"
    },
    {
      "children": [
        26
      ],
      "name": "Lights",
      "scale": [
        0.4000000059604645,
        0.4000000059604645,
        0.4000000059604645
      ],
      "translation": [
        0.0,
        -2.2737367544323206e-13,
        2.2737367544323206e-13
      ]
    },
    {
      "mesh": 7,
      "name": "Lights_lights_0"
    }
  ],
  "samplers": [
    {
      "magFilter": 9729,
      "minFilter": 9987,
      "wrapS": 10497,
      "wrapT": 10497
    }
  ],
  "scene": 0,
  "scenes": [
    {
      "name": "Sketchfab_Scene",
      "nodes": [
        0
      ]
    }
  ],
  "textures": [
    {
      "sampler": 0,
      "source": 0
    },
    {
      "sampler": 0,
      "source": 1
    },
    {
      "sampler": 0,
      "source": 2
    }
  ]
}
